<svg xmlns="http://www.w3.org/2000/svg" viewBox="0 0 820 470" role="img" aria-labelledby="title desc">
  <title id="title">Context-dependent Jacobian</title>
  <desc id="desc">The same source arrow at two different points on a nonlinear field is transformed into different target arrows.</desc>
  <style>
  svg {
    color-scheme: light dark;
    --text: #172033;
    --muted: #5c667a;
    --line: #253044;
    --grid: #d8dde8;
    --blue: #246bfe;
    --green: #0f8f7f;
    --red: #cc4b37;
    --gold: #b98113;
    --fill: #f7f9fc;
  }
  @media (prefers-color-scheme: dark) {
    svg {
      --text: #eef2ff;
      --muted: #b7bfd1;
      --line: #dce3f7;
      --grid: #384153;
      --blue: #82a7ff;
      --green: #60d4c6;
      --red: #ff8a76;
      --gold: #ffd27a;
      --fill: #1f2633;
    }
  }
  .title { font: 700 24px system-ui, -apple-system, Segoe UI, sans-serif; fill: var(--text); }
  .label { font: 600 15px system-ui, -apple-system, Segoe UI, sans-serif; fill: var(--text); }
  .small { font: 13px system-ui, -apple-system, Segoe UI, sans-serif; fill: var(--muted); }
  .tiny { font: 11px system-ui, -apple-system, Segoe UI, sans-serif; fill: var(--muted); }
  .axis { stroke: var(--grid); stroke-width: 1.2; }
  .line { stroke: var(--line); stroke-width: 2.2; fill: none; }
  .surface { stroke: var(--grid); fill: none; stroke-width: 1.4; }
  .box { fill: var(--fill); stroke: var(--grid); stroke-width: 1.4; rx: 8; }
  .arrow-v { stroke: var(--blue); stroke-width: 4; fill: none; marker-end: url(#arrowBlue); }
  .arrow-local { stroke: var(--green); stroke-width: 4; fill: none; marker-end: url(#arrowGreen); }
  .arrow-avg { stroke: var(--gold); stroke-width: 4; fill: none; marker-end: url(#arrowGold); }
  .arrow-red { stroke: var(--red); stroke-width: 4; fill: none; marker-end: url(#arrowRed); }
  .node { fill: var(--fill); stroke: var(--line); stroke-width: 1.8; }
</style>
  <defs>
  <marker id="arrowBlue" markerWidth="10" markerHeight="10" refX="8" refY="3" orient="auto" markerUnits="strokeWidth"><path d="M0,0 L0,6 L9,3 z" fill="#246bfe"/></marker>
  <marker id="arrowGreen" markerWidth="10" markerHeight="10" refX="8" refY="3" orient="auto" markerUnits="strokeWidth"><path d="M0,0 L0,6 L9,3 z" fill="#0f8f7f"/></marker>
  <marker id="arrowGold" markerWidth="10" markerHeight="10" refX="8" refY="3" orient="auto" markerUnits="strokeWidth"><path d="M0,0 L0,6 L9,3 z" fill="#b98113"/></marker>
  <marker id="arrowRed" markerWidth="10" markerHeight="10" refX="8" refY="3" orient="auto" markerUnits="strokeWidth"><path d="M0,0 L0,6 L9,3 z" fill="#cc4b37"/></marker>
</defs>

  <text class="title" x="36" y="48">A Jacobian is attached to a point</text>
  <path class="surface" d="M80 150 C220 105, 340 185, 500 140 S680 145, 760 108"/>
<path class="surface" d="M80 210 C220 165, 340 245, 500 200 S680 205, 760 168"/>
<path class="surface" d="M80 270 C220 225, 340 305, 500 260 S680 265, 760 228"/>
<path class="surface" d="M80 330 C220 285, 340 365, 500 320 S680 325, 760 288"/>
  <circle class="node" cx="215" cy="245" r="7"/>
  <circle class="node" cx="585" cy="220" r="7"/>
  <path class="arrow-v" d="M215 245 L280 205"/>
  <path class="arrow-v" d="M585 220 L650 180"/>
  <path class="arrow-local" d="M215 245 L255 310"/>
  <path class="arrow-red" d="M585 220 L665 238"/>
  <text class="label" x="154" y="272">context x1</text>
  <text class="small" x="245" y="200">same v</text>
  <text class="small" x="260" y="320">J(x1)v</text>
  <text class="label" x="525" y="247">context x2</text>
  <text class="small" x="622" y="175">same v</text>
  <text class="small" x="670" y="244">J(x2)v</text>
  <text class="small" x="92" y="405">Same semantic question. Different local context. Different first-order answer.</text>
</svg>
