<svg xmlns="http://www.w3.org/2000/svg" viewBox="0 0 840 440" role="img" aria-labelledby="title desc">
<title id="title">MLP7 valid-vs-invalid selectivity</title>
<desc id="desc">Small mixed unpaired selectivity values among fixed candidate neurons.</desc>
<style>
svg{color-scheme:light dark;--text:#172033;--muted:#5c667a;--grid:#d8dde8;--pos:#0f8f7f;--neg:#cc4b37;--fill:#f7f9fc}
@media(prefers-color-scheme:dark){svg{--text:#eef2ff;--muted:#b7bfd1;--grid:#384153;--pos:#5fd4c7;--neg:#ff8f7d;--fill:#1f2633}}
.title{font:700 23px system-ui,-apple-system,Segoe UI,sans-serif;fill:var(--text)}.label{font:600 12px system-ui,-apple-system,Segoe UI,sans-serif;fill:var(--text)}.small{font:11px system-ui,-apple-system,Segoe UI,sans-serif;fill:var(--muted)}
.axis{stroke:var(--grid);stroke-width:1.1}.zero{stroke:var(--grid);stroke-width:1.7;stroke-dasharray:5 5}.pos{fill:var(--pos)}.neg{fill:var(--neg)}
</style>
<text class="title" x="42" y="44">Valid-vs-invalid activation selectivity is small and mixed</text>
<text class="small" x="42" y="68">Unpaired standardized difference: valid capture minus opponent-run without friendly terminator.</text>
<line class="axis" x1="74" y1="350" x2="760" y2="350"/>
<line class="axis" x1="74" y1="95" x2="74" y2="350"/>
<line class="zero" x1="74" y1="212.7" x2="760" y2="212.7"/>
<text class="small" x="64" y="314.8" text-anchor="end">-0.1</text>
<text class="small" x="64" y="216.7" text-anchor="end">0.0</text>
<text class="small" x="64" y="118.6" text-anchor="end">0.1</text>
<rect class="neg" x="79.1" y="212.7" width="24.0" height="122.8"/>
<text class="small" x="91.1" y="374" text-anchor="middle" transform="rotate(60 91.1 374)">399</text>
<rect class="neg" x="113.4" y="212.7" width="24.0" height="73.2"/>
<text class="small" x="125.4" y="374" text-anchor="middle" transform="rotate(60 125.4 374)">1322</text>
<rect class="neg" x="147.7" y="212.7" width="24.0" height="47.6"/>
<text class="small" x="159.8" y="374" text-anchor="middle" transform="rotate(60 159.8 374)">1576</text>
<rect class="neg" x="182.0" y="212.7" width="24.0" height="50.9"/>
<text class="small" x="194.0" y="374" text-anchor="middle" transform="rotate(60 194.0 374)">366</text>
<rect class="neg" x="216.3" y="212.7" width="24.0" height="34.4"/>
<text class="small" x="228.3" y="374" text-anchor="middle" transform="rotate(60 228.3 374)">558</text>
<rect class="neg" x="250.6" y="212.7" width="24.0" height="42.1"/>
<text class="small" x="262.7" y="374" text-anchor="middle" transform="rotate(60 262.7 374)">1858</text>
<rect class="pos" x="284.9" y="132.6" width="24.0" height="80.1"/>
<text class="small" x="296.9" y="374" text-anchor="middle" transform="rotate(60 296.9 374)">1747</text>
<rect class="pos" x="319.2" y="207.1" width="24.0" height="5.6"/>
<text class="small" x="331.2" y="374" text-anchor="middle" transform="rotate(60 331.2 374)">495</text>
<rect class="pos" x="353.5" y="106.8" width="24.0" height="105.9"/>
<text class="small" x="365.5" y="374" text-anchor="middle" transform="rotate(60 365.5 374)">1167</text>
<rect class="neg" x="387.8" y="212.7" width="24.0" height="51.3"/>
<text class="small" x="399.8" y="374" text-anchor="middle" transform="rotate(60 399.8 374)">14</text>
<rect class="pos" x="422.1" y="176.0" width="24.0" height="36.7"/>
<text class="small" x="434.1" y="374" text-anchor="middle" transform="rotate(60 434.1 374)">1400</text>
<rect class="pos" x="456.4" y="136.8" width="24.0" height="75.9"/>
<text class="small" x="468.4" y="374" text-anchor="middle" transform="rotate(60 468.4 374)">272</text>
<rect class="neg" x="490.7" y="212.7" width="24.0" height="66.0"/>
<text class="small" x="502.7" y="374" text-anchor="middle" transform="rotate(60 502.7 374)">1673</text>
<rect class="pos" x="525.0" y="209.3" width="24.0" height="3.4"/>
<text class="small" x="537.0" y="374" text-anchor="middle" transform="rotate(60 537.0 374)">1953</text>
<rect class="pos" x="559.3" y="160.6" width="24.0" height="52.1"/>
<text class="small" x="571.3" y="374" text-anchor="middle" transform="rotate(60 571.3 374)">991</text>
<rect class="pos" x="593.6" y="119.7" width="24.0" height="93.0"/>
<text class="small" x="605.6" y="374" text-anchor="middle" transform="rotate(60 605.6 374)">734</text>
<rect class="neg" x="627.9" y="212.7" width="24.0" height="41.4"/>
<text class="small" x="639.9" y="374" text-anchor="middle" transform="rotate(60 639.9 374)">1000</text>
<rect class="pos" x="662.2" y="151.2" width="24.0" height="61.5"/>
<text class="small" x="674.2" y="374" text-anchor="middle" transform="rotate(60 674.2 374)">877</text>
<rect class="pos" x="696.5" y="187.8" width="24.0" height="24.9"/>
<text class="small" x="708.5" y="374" text-anchor="middle" transform="rotate(60 708.5 374)">125</text>
<rect class="pos" x="730.8" y="204.4" width="24.0" height="8.3"/>
<text class="small" x="742.8" y="374" text-anchor="middle" transform="rotate(60 742.8 374)">912</text>
<text class="small" x="415" y="423" text-anchor="middle">fixed attribution-ranked candidate neuron ID</text>
<text class="small" x="26" y="226" transform="rotate(-90 26 226)" text-anchor="middle">standardized selectivity</text>
<rect class="pos" x="624" y="88" width="12" height="12"/><text class="small" x="642" y="98">higher on valid capture</text>
<rect class="neg" x="624" y="110" width="12" height="12"/><text class="small" x="642" y="120">higher on invalid control</text>
<metadata>{"source": "30. Candidate neuron activation by Othello condition", "notebook": "demos/Othello_GPT_Jacobian_Lens.ipynb", "branch": "othello-jspace-analysis"}</metadata>
</svg>
